<svg width="95" height="68" viewBox="0 0 95 68" fill="none" xmlns="http://www.w3.org/2000/svg">
<path fill-rule="evenodd" clip-rule="evenodd" d="M92.7273 10.6448C91.6417 6.47421 88.4428 3.19006 84.381 2.07546C77.0199 0.0498047 47.5 0.0498047 47.5 0.0498047C47.5 0.0498047 17.9802 0.0498047 10.6186 2.07546C6.55673 3.19006 3.35786 6.47421 2.27226 10.6448C0.300049 18.2035 0.300049 33.9748 0.300049 33.9748C0.300049 33.9748 0.300049 49.7456 2.27226 57.3048C3.35786 61.4754 6.55673 64.7596 10.6186 65.8747C17.9802 67.8998 47.5 67.8998 47.5 67.8998C47.5 67.8998 77.0199 67.8998 84.381 65.8747C88.4428 64.7596 91.6417 61.4754 92.7273 57.3048C94.7001 49.7456 94.7001 33.9748 94.7001 33.9748C94.7001 33.9748 94.7001 18.2035 92.7273 10.6448Z" fill="#FF0000"/>
<path fill-rule="evenodd" clip-rule="evenodd" d="M38.6493 50.1997V20.6997L62.2493 35.4503L38.6493 50.1997Z" fill="white"/>
</svg>
