<svg width="68" height="68" viewBox="0 0 68 68" fill="none" xmlns="http://www.w3.org/2000/svg">
<g filter="url(#filter0_d)">
<mask id="mask0" mask-type="alpha" maskUnits="userSpaceOnUse" x="4" y="4" width="60" height="60">
<path fill-rule="evenodd" clip-rule="evenodd" d="M4 34C4 17.4315 17.4315 4 34 4C50.5685 4 64 17.4315 64 34C64 50.5685 50.5685 64 34 64C17.4315 64 4 50.5685 4 34Z" fill="white"/>
</mask>
<g mask="url(#mask0)">
<path fill-rule="evenodd" clip-rule="evenodd" d="M4 34C4 17.4315 17.4315 4 34 4C50.5685 4 64 17.4315 64 34C64 50.5685 50.5685 64 34 64C17.4315 64 4 50.5685 4 34Z" fill="white"/>
<path fill-rule="evenodd" clip-rule="evenodd" d="M34.0015 18C29.6561 18 29.1108 18.019 27.4041 18.0967C25.7007 18.1747 24.5381 18.4443 23.5207 18.84C22.4684 19.2487 21.5757 19.7954 20.6864 20.685C19.7964 21.5744 19.2497 22.467 18.8397 23.5191C18.443 24.5367 18.173 25.6997 18.0963 27.4024C18.02 29.1091 18 29.6548 18 34.0002C18 38.3455 18.0193 38.8892 18.0967 40.5959C18.175 42.2993 18.4447 43.4619 18.84 44.4793C19.249 45.5316 19.7957 46.4243 20.6854 47.3136C21.5744 48.2036 22.467 48.7517 23.5187 49.1603C24.5367 49.556 25.6997 49.8257 27.4028 49.9037C29.1094 49.9813 29.6545 50.0003 33.9995 50.0003C38.3452 50.0003 38.8889 49.9813 40.5956 49.9037C42.2989 49.8257 43.4629 49.556 44.4809 49.1603C45.533 48.7517 46.4243 48.2036 47.3133 47.3136C48.2033 46.4243 48.75 45.5316 49.16 44.4796C49.5533 43.4619 49.8233 42.2989 49.9033 40.5962C49.98 38.8896 50 38.3455 50 34.0002C50 29.6548 49.98 29.1094 49.9033 27.4028C49.8233 25.6994 49.5533 24.5367 49.16 23.5194C48.75 22.467 48.2033 21.5744 47.3133 20.685C46.4233 19.795 45.5333 19.2483 44.4799 18.84C43.4599 18.4443 42.2966 18.1747 40.5932 18.0967C38.8866 18.019 38.3432 18 33.9965 18H34.0015ZM32.5662 20.8834C32.9922 20.8827 33.4675 20.8834 34.0015 20.8834C38.2735 20.8834 38.7799 20.8987 40.4669 20.9754C42.0269 21.0467 42.8736 21.3074 43.4376 21.5264C44.1843 21.8164 44.7166 22.163 45.2763 22.723C45.8363 23.2831 46.183 23.8164 46.4736 24.5631C46.6926 25.1264 46.9536 25.9731 47.0246 27.5331C47.1013 29.2198 47.118 29.7265 47.118 33.9965C47.118 38.2665 47.1013 38.7732 47.0246 40.4599C46.9533 42.0199 46.6926 42.8666 46.4736 43.4299C46.1836 44.1766 45.8363 44.7083 45.2763 45.268C44.7163 45.828 44.1846 46.1746 43.4376 46.4646C42.8743 46.6846 42.0269 46.9446 40.4669 47.016C38.7802 47.0926 38.2735 47.1093 34.0015 47.1093C29.7291 47.1093 29.2228 47.0926 27.5361 47.016C25.9761 46.944 25.1294 46.6833 24.5651 46.4643C23.8184 46.1743 23.2851 45.8276 22.725 45.2676C22.165 44.7076 21.8184 44.1756 21.5277 43.4286C21.3087 42.8653 21.0477 42.0186 20.9767 40.4586C20.9 38.7719 20.8847 38.2652 20.8847 33.9925C20.8847 29.7198 20.9 29.2158 20.9767 27.5291C21.048 25.9691 21.3087 25.1224 21.5277 24.5584C21.8177 23.8117 22.165 23.2784 22.725 22.7184C23.2851 22.1584 23.8184 21.8117 24.5651 21.521C25.1291 21.301 25.9761 21.041 27.5361 20.9694C29.0121 20.9027 29.5841 20.8827 32.5662 20.8794V20.8834ZM42.5423 23.5401C41.4822 23.5401 40.6222 24.3991 40.6222 25.4594C40.6222 26.5194 41.4822 27.3794 42.5423 27.3794C43.6023 27.3794 44.4623 26.5194 44.4623 25.4594C44.4623 24.3994 43.6023 23.5394 42.5423 23.5394V23.5401ZM34.0015 25.7834C29.4638 25.7834 25.7847 29.4625 25.7847 34.0002C25.7847 38.5379 29.4638 42.2153 34.0015 42.2153C38.5392 42.2153 42.2169 38.5379 42.2169 34.0002C42.2169 29.4625 38.5389 25.7834 34.0012 25.7834H34.0015ZM34.0015 28.6668C36.9469 28.6668 39.3349 31.0545 39.3349 34.0002C39.3349 36.9455 36.9469 39.3336 34.0015 39.3336C31.0558 39.3336 28.6681 36.9455 28.6681 34.0002C28.6681 31.0545 31.0558 28.6668 34.0015 28.6668Z" fill="black"/>
</g>
</g>
<defs>
<filter id="filter0_d" x="0" y="0" width="68" height="68" filterUnits="userSpaceOnUse" color-interpolation-filters="sRGB">
<feFlood flood-opacity="0" result="BackgroundImageFix"/>
<feColorMatrix in="SourceAlpha" type="matrix" values="0 0 0 0 0 0 0 0 0 0 0 0 0 0 0 0 0 0 127 0"/>
<feOffset/>
<feGaussianBlur stdDeviation="2"/>
<feColorMatrix type="matrix" values="0 0 0 0 0 0 0 0 0 0 0 0 0 0 0 0 0 0 0.25 0"/>
<feBlend mode="normal" in2="BackgroundImageFix" result="effect1_dropShadow"/>
<feBlend mode="normal" in="SourceGraphic" in2="effect1_dropShadow" result="shape"/>
</filter>
</defs>
</svg>
