<svg width="20" height="20" viewBox="0 0 20 20" fill="none" xmlns="http://www.w3.org/2000/svg">
<path fill-rule="evenodd" clip-rule="evenodd" d="M4.14286 0.0407085C4.38572 0.0203542 4.59389 0.0793815 4.72858 0.301243C5.03063 0.789744 5.33472 1.27825 5.62248 1.77896C5.95514 2.35702 6.26126 2.95136 6.5878 3.53553C6.67147 3.69226 6.7878 3.83474 6.88576 3.98536C6.97556 4.12784 7.06128 4.27439 7.14495 4.41687C7.31638 4.7405 7.30822 5.06617 7.05311 5.32467C6.68984 5.69511 6.28983 6.0391 5.90411 6.39123C5.58166 6.68637 5.24696 6.96929 4.93267 7.27053C4.68777 7.50664 4.6245 7.80178 4.78981 8.1132C5.04492 8.58949 5.29798 9.06578 5.57758 9.53189C6.61433 11.2559 7.93884 12.7214 9.61234 13.8511C10.2572 14.2887 10.9287 14.6896 11.6063 15.0723C12.245 15.4326 12.494 15.3715 12.9899 14.8199C13.4512 14.309 13.8961 13.79 14.3553 13.275C14.4655 13.1509 14.5981 13.041 14.7267 12.9351C14.9879 12.7153 15.2737 12.6909 15.5737 12.8415C15.6573 12.8822 15.7471 12.9188 15.8206 12.9718C16.6165 13.5396 17.5064 13.9406 18.3472 14.423C18.7982 14.6815 19.237 14.9583 19.6799 15.2229C19.9186 15.3634 20.0146 15.569 19.9982 15.8519C19.9533 16.6477 19.8207 17.4293 19.3574 18.101C19.1635 18.3799 18.888 18.6241 18.6105 18.8216C17.8411 19.3589 16.9819 19.6907 16.0676 19.8942C15.2369 20.0795 14.4083 20.0123 13.6124 19.764C12.0756 19.2917 10.5613 18.7503 9.16743 17.93C7.90211 17.183 6.75107 16.2814 5.68574 15.2738C4.33674 13.9935 3.13264 12.5972 2.15915 11.0076C1.52445 9.97561 1.07138 8.86427 0.661168 7.73054C0.412184 7.04664 0.167282 6.36884 0.0570761 5.64423C-0.0694567 4.82395 0.0182999 4.03421 0.28157 3.25668C0.518308 2.55446 0.814232 1.88277 1.26118 1.28232C1.6122 0.816205 2.05099 0.474254 2.61834 0.321597C3.07345 0.201507 3.53265 0.105842 3.9898 0C4.04898 0.0468147 4.09592 0.0468147 4.14286 0.0407085Z" fill="white"/>
</svg>
